<?xml version="1.0" standalone="no"?>
<!DOCTYPE svg PUBLIC "-//W3C//DTD SVG 20010904//EN"
 "http://www.w3.org/TR/2001/REC-SVG-20010904/DTD/svg10.dtd">
<svg version="1.0" xmlns="http://www.w3.org/2000/svg"
 width="1218.000000pt" height="1280.000000pt" viewBox="0 0 1218.000000 1280.000000"
 preserveAspectRatio="xMidYMid meet">
<metadata>
Created by potrace 1.15, written by Peter Selinger 2001-2017
</metadata>
<g transform="translate(0.000000,1280.000000) scale(0.100000,-0.100000)"
fill="#000000" stroke="none">
<path d="M3405 11869 c-240 -26 -563 -114 -782 -213 -304 -137 -541 -302 -788
-550 -513 -514 -785 -1175 -785 -1906 0 -429 85 -804 270 -1197 458 -972 1674
-2233 3395 -3524 602 -451 1310 -929 1378 -929 70 0 938 594 1532 1048 1650
1262 2769 2438 3229 3394 149 309 222 562 262 904 20 172 14 555 -10 707 -47
290 -127 542 -250 792 -389 790 -1118 1328 -1976 1460 -149 23 -439 30 -595
16 -588 -55 -1130 -287 -1660 -709 -66 -53 -214 -189 -329 -303 l-208 -207
-63 66 c-34 37 -74 81 -88 97 -41 50 -294 278 -410 369 -468 371 -959 592
-1489 672 -125 19 -507 27 -633 13z"/>
<path d="M2140 2150 l0 -890 3950 0 3950 0 0 890 0 890 -3950 0 -3950 0 0
-890z"/>
<path d="M590 2517 c0 -1 81 -202 179 -446 l180 -445 -166 -410 c-91 -225
-172 -424 -179 -443 l-14 -33 690 0 690 0 0 890 0 890 -690 0 c-379 0 -690 -1
-690 -3z"/>
<path d="M10210 1630 l0 -890 690 0 690 0 -17 43 c-9 23 -90 222 -179 443
l-161 401 173 429 c96 236 177 437 180 447 5 16 -32 17 -685 17 l-691 0 0
-890z"/>
</g>
</svg>
